# xmcd CD database file
#
# Track frame offsets:
#	182
#	42650
#	66507
#	94695
#	124670
#	141720
#
# Disc length: 2478 seconds
#
# Revision: 0
# Processed by: cddbd v1.5.1PL0 Copyright (c) Steve Scherf et al.
# Submitted via: CDex 1.60beta1
#
DISCID=5f09ac06
DTITLE=Various Artist - Music For Your Nightmare
DYEAR=1989
DGENRE=New Age
TTITLE0=Steven Schramm, Jonas Kvarnstrom - Torture Chamber
TTITLE1=Steven Schramm, Jonas Kvarnstrom - Terror Drive
TTITLE2=Steven Schramm, Jonas Kvarnstrom - Funeral Procession
TTITLE3=Steven Schramm, Jonas Kvarnstrom - Run For Your Life
TTITLE4=Steven Schramm, Jonas Kvarnstrom - The Forgotten Castle
TTITLE5=Steven Schramm, Jonas Kvarnstrom - Dungeon Of Doom
EXTD=YEAR: 1989
EXTT0=
EXTT1=
EXTT2=
EXTT3=
EXTT4=
EXTT5=
PLAYORDER=
